<svg xmlns="http://www.w3.org/2000/svg" xml:space="preserve" width="1000" height="1859.8831" x="0px" y="0px" viewBox="0 0 1000 1859.8831"><path d="M957.875 1466.66h-7.007v-3.919h18.863v3.92h-6.96v19.558h-4.896zm37.624 1.022h-.11l-6.942 18.54h-3.177l-6.898-18.54h-.086v18.54h-4.614v-23.478h6.79l6.396 16.625 6.375-16.625H1000v23.478h-4.504v-18.54z" style="fill:#e11f21;fill-opacity:1;stroke-width:3.43845844"/><path d="M330.622 986.58s-48.75 28.35 34.694 37.943c101.09 11.533 152.757 9.879 264.16-11.206 0 0 29.288 18.365 70.192 34.271-249.735 107.033-565.2-6.2-369.046-61.008M300.105 846.91s-54.678 40.474 28.828 49.111c107.988 11.14 193.27 12.052 340.837-16.363 0 0 20.411 20.692 52.506 32.008-301.945 88.293-638.257 6.963-422.17-64.756" style="fill:#0b6fb6;fill-opacity:1;stroke-width:3.43845844"/><path d="M557.367 609.983C618.902 680.829 541.2 744.58 541.2 744.58s156.247-80.66 84.49-181.664c-67.02-94.193-118.414-140.994 159.816-302.357 0 0-436.73 109.074-228.139 349.423" style="fill:#e11f21;fill-opacity:1;stroke-width:3.43845844"/><path d="M887.662 1089.888s36.076 29.726-39.731 52.722c-144.15 43.669-599.97 56.855-726.595 1.74-45.518-19.802 39.842-47.282 66.693-53.048 28.002-6.073 44.005-4.942 44.005-4.942-50.62-35.66-327.193 70.021-140.485 100.287 509.18 82.574 928.188-37.184 796.113-96.759M354.065 702.195s-231.859 55.07-82.107 75.069c63.23 8.465 189.277 6.55 306.686-3.288 95.954-8.094 192.303-25.303 192.303-25.303s-33.834 14.49-58.313 31.204c-235.448 61.923-690.29 33.116-559.348-30.224 110.74-53.53 200.779-47.458 200.779-47.458M769.991 934.683c239.344-124.372 128.681-243.893 51.44-227.79-18.933 3.94-27.374 7.354-27.374 7.354s7.028-11.01 20.452-15.776c152.808-53.722 270.328 158.448-49.328 242.48 0 .003 3.703-3.307 4.81-6.268" style="fill:#0b6fb6;fill-opacity:1;stroke-width:3.43845844"/><path d="M625.69 0s132.552 132.597-125.721 336.495c-207.109 163.56-47.227 256.818-.086 363.369C378.99 590.789 290.271 494.77 349.791 405.404 437.15 274.225 679.17 210.624 625.689 0" style="fill:#e11f21;fill-opacity:1;stroke-width:3.43845844"/><path d="M377.584 1271.704c229.74 14.706 582.533-8.16 590.889-116.867 0 0-16.061 41.21-189.868 73.938-196.089 36.901-437.936 32.593-581.378 8.943.003 0 29.364 24.303 180.357 33.986" style="fill:#0b6fb6;fill-opacity:1;stroke-width:3.43845844"/><path d="M339.933 1687.076c-21.673 18.798-44.563 29.351-65.104 29.351-29.32 0-45.16-17.58-45.16-45.78 0-30.502 16.972-52.804 85.063-52.804h25.197v69.233m59.806 67.473V1545.69c0-53.354-30.43-88.56-103.8-88.56-42.834 0-80.354 10.576-110.85 24.065l8.803 36.97c24.01-8.812 55.09-17.016 85.597-17.016 42.265 0 60.448 17.017 60.448 52.199v26.397h-21.095c-102.69 0-149.013 39.862-149.013 99.695 0 51.635 30.527 80.985 88.004 80.985 36.947 0 64.526-15.252 90.308-37.575l4.68 31.703h46.918zM599.316 1754.55H524.73l-89.764-292.132H500.1l55.7 179.487 12.381 53.98c28.178-78.046 48.108-157.226 58.076-233.467h63.36c-16.975 96.198-47.523 201.786-90.3 292.131M885.44 1687.076c-21.713 18.798-44.644 29.351-65.185 29.351-29.269 0-45.15-17.58-45.15-45.78 0-30.502 17.013-52.804 85.098-52.804h25.238v69.233m59.795 67.473V1545.69c0-53.354-30.506-88.56-103.79-88.56-42.864 0-80.398 10.576-110.88 24.065l8.789 36.97c24.02-8.812 55.16-17.016 85.641-17.016 42.235 0 60.445 17.017 60.445 52.199v26.397h-21.13c-102.72 0-149.022 39.862-149.022 99.695 0 51.635 30.502 80.985 87.97 80.985 36.966 0 64.536-15.252 90.362-37.575l4.697 31.703h46.918zM104.254 1804.16c-17.048 24.89-44.583 44.582-74.728 55.723L0 1825.137c22.945-11.773 42.623-30.788 51.766-48.5 7.908-15.75 11.182-36.051 11.182-84.599v-333.513h63.536v328.943c-.003 64.905-5.192 91.123-22.23 116.691" style="fill:#e11f21;fill-opacity:1;stroke-width:3.43845844"/></svg>