<?xml version="1.0" encoding="UTF-8"?>
<svg height="640.75" viewBox="-.5 -.5 640.09 640.75" width="640.09" xmlns="http://www.w3.org/2000/svg">
<clipPath id="a"><path d="m294.5-5.5h330.17v380.71h-330.17zm-64.48-61.47v354.97h461.03v-354.97z"/></clipPath><path d="m298.9-.5a300 300 0 0 0 -299.4 299.8 300 300 0 0 0 0 .2h101.08a198.92 198.92 0 0 1 198.5-198.92 198.92 198.92 0 0 1 .42 0v-101.08z" fill="#a6611a" transform="matrix(0 1 -1 0 618.92 20.17)"/><path d="m300-20.17v20.17h-.6a300 300 0 0 0 -299.4 299.8 300 300 0 0 0 0 .2h101.08a198.92 198.92 0 0 1 198.5-198.92 198.92 198.92 0 0 1 .41 0v20.17l70.71-70.71z" fill="#dfc27d" transform="translate(19.42 19.67)"/><path d="m369.62 49.44-70.72-70.7v20.16h-.58a300 300 0 0 0 -299.4 299.8 300 300 0 0 0 0 .2h101.06a198.92 198.92 0 0 1 198.5-198.92 198.92 198.92 0 0 1 .41 0v20.17z" fill="#018571" transform="matrix(0 -1 1 0 20.76 618.99)"/><path d="m498.92 299.4a198.92 198.92 0 0 1 -198.5 198.93 198.92 198.92 0 0 1 -.41 0v-20.18l-70.71 70.72 70.7 70.7v-20.17h.6a300 300 0 0 0 299.4-299.8 300 300 0 0 0 0-.2z" fill="#80cdc1" transform="translate(19.42 20.67)"/><g transform="translate(19.92 20.17)"><path clip-path="url(#a)" d="m619.67 299.5h-20.17v-.59a300 300 0 0 0 -299.8-299.4 300 300 0 0 0 -.2 0v101.08a198.92 198.92 0 0 1 198.92 198.5 198.92 198.92 0 0 1 0 .41h-20.17l70.71 70.71z" fill="#a6611a"/><g><g transform="matrix(.90296063 .42972328 -.42972328 .90296063 156.968065 -99.547905)"><path d="m449.8 507.36q-.65.98-1.16 1.8-.5.82-1.43 1.96-.8.96-1.84 1.94-1 .99-2.42 1.9-2.65 1.73-5.3 2.4-2.66.66-5.3.12-2.58-.53-5.02-2.35-2.45-1.83-4.51-5-1.96-3.02-2.66-5.95-.69-2.92-.15-5.6.52-2.6 2.17-4.87 1.67-2.27 4.35-4.02 1.97-1.28 4.22-2.07 2.28-.8 5.45-1.16l2.5 3.84-.25.16q-3.1-.37-5.59.15-2.48.52-4.74 1.99-1.85 1.2-2.95 2.78-1.09 1.54-1.43 3.56-.33 1.96.26 4.26.6 2.27 2.19 4.73 1.67 2.57 3.56 3.97 1.91 1.4 3.76 1.84 1.94.47 3.84.07 1.92-.43 3.62-1.54 2.34-1.52 3.86-3.66 1.53-2.13 2.27-4.9l.23-.15z"/><path d="m456.97 470.99q2.62.35 5.16 1.91 2.56 1.56 4.87 4.3 2.31 2.76 3.4 5.57 1.1 2.78.98 5.35-.1 2.67-1.35 5.01-1.22 2.34-3.63 4.36-2.35 1.97-4.93 2.82-2.57.83-5.16.48-2.59-.35-5.13-1.88-2.53-1.55-4.85-4.32-2.29-2.72-3.38-5.47-1.1-2.78-1.03-5.47.09-2.57 1.37-4.98 1.3-2.43 3.61-4.36 2.4-2.02 4.96-2.82 2.56-.83 5.11-.5zm6.95 8.8q-3.64-4.33-7.56-5.04-3.93-.73-7.3 2.1-3.39 2.85-3.34 6.85.04 3.97 3.69 8.3 3.68 4.38 7.62 5.05 3.92.66 7.23-2.13 3.32-2.79 3.33-6.75.01-4-3.67-8.37z"/><path d="m499.61 463.45-2.6 2.87-18.56-16.84 7.2 17.45-1.55 1.7-18.02-5.5 18.56 16.83-2.43 2.67-21.54-19.53 3.54-3.91 17.2 5.14-6.95-16.44 3.61-3.98z"/><path d="m499.97 428.35q1.58 1.12 2.54 2.64.96 1.49 1.25 3.17.35 2.1-.21 4.21-.58 2.1-2.39 4.66l-2.23 3.15 8.84 6.27-2.23 3.15-23.73-16.8 4.56-6.44q1.51-2.14 2.93-3.36 1.4-1.24 2.97-1.84 1.87-.71 3.75-.49 1.88.21 3.95 1.68zm-2.24 3.34q-1.23-.87-2.44-1.08-1.22-.21-2.41.26-1.04.41-1.94 1.25-.92.82-1.98 2.32l-2.2 3.12 9.48 6.72 1.88-2.67q1.35-1.9 1.87-3.34.5-1.45.27-2.72-.23-1.3-.86-2.2-.62-.91-1.67-1.66z"/><path d="m520.68 409.23q2.77 1.53 4.5 3.3 1.71 1.73 2.32 3.87.57 2.03.2 4.12-.38 2.1-1.67 4.43-1.33 2.4-2.94 3.83-1.62 1.42-3.52 1.96-2.17.6-4.49.13-2.31-.5-5.2-2.1l-15.23-8.41 1.87-3.39 15.4 8.51q2.07 1.15 3.42 1.53 1.35.38 2.7.25 1.52-.14 2.8-1.11 1.28-.99 2.28-2.8 1.01-1.83 1.17-3.41.15-1.6-.56-3-.6-1.2-1.7-2.16-1.1-.99-2.97-2.02l-15.49-8.56 1.87-3.38z"/><path d="m541.93 389.37-7.13 16.96-26.8-11.25 1.5-3.57 23.64 9.93 5.63-13.4z"/><path d="m542.04 361.18q1.62.5 2.98 1.74 1.36 1.23 2.05 2.93.74 1.86.81 4.06.07 2.19-.78 4.99-.9 3-2.2 5.25-1.29 2.22-3.14 4.37l-4.64-1.4.08-.26q2.4-1.58 4.2-4.06 1.78-2.48 2.52-4.9 1.04-3.45.33-5.74-.7-2.32-2.86-2.97-1.85-.56-3 .09-1.15.63-2.2 2.33-.8 1.29-1.54 2.86-.74 1.55-1.67 3.27-1.9 3.47-4.33 4.69-2.45 1.2-5.5.27-3.49-1.06-4.82-4.68-1.35-3.64.03-8.18.89-2.93 2.2-5.21 1.3-2.28 2.69-3.92l4.37 1.33-.08.26q-1.82 1.18-3.49 3.51-1.68 2.3-2.5 5.02-.9 2.97-.22 5.16.7 2.16 2.64 2.75 1.74.53 3-.07 1.26-.6 2.47-2.7.62-1.11 1.67-3.2 1.04-2.1 1.9-3.51 1.76-2.86 3.9-3.92 2.14-1.07 5.13-.16z"/><path d="m553.74 345.5-2.3 11.25-2.9-.6.76-3.73-22.68-4.63-.76 3.73-2.9-.6 2.29-11.25 2.9.6-.75 3.73 22.67 4.63.76-3.73z"/><path d="m531.91 312.89q2.12-1.57 5.03-2.22 2.92-.67 6.5-.3 3.57.35 6.3 1.61 2.73 1.24 4.44 3.16 1.78 1.98 2.52 4.53.75 2.53.43 5.66-.3 3.05-1.57 5.46-1.26 2.38-3.36 3.94-2.1 1.55-5 2.22-2.89.65-6.48.29-3.54-.36-6.24-1.58-2.73-1.21-4.55-3.2-1.73-1.9-2.48-4.54-.76-2.64-.46-5.64.32-3.1 1.6-5.47 1.26-2.38 3.32-3.92zm11.12 1.47q-5.64-.57-8.94 1.65-3.33 2.22-3.77 6.59-.45 4.41 2.37 7.25 2.8 2.81 8.43 3.38 5.7.58 8.99-1.68 3.27-2.26 3.7-6.57.44-4.32-2.32-7.17-2.77-2.87-8.46-3.45z"/><path d="m557.47 281.48.12 4.79-25.65 14.45 26.01-.67.1 3.61-29.08.75-.15-6 23.41-13.18-23.74.61-.1-3.6z"/></g><g fill="#fff" transform="matrix(-.1010563 .99488071 -.99488071 -.1010563 627.932778 31.799196)"><path d="m452.3 508.26-4.21 2.74-14.46-4.4-4.57 2.98 6.3 9.7-3.24 2.1-15.85-24.38 6.82-4.44q2.21-1.44 3.88-2.1 1.65-.68 3.31-.71 1.87-.03 3.44.77 1.57.77 2.84 2.72 1.71 2.63 1.55 5.28-.18 2.63-1.92 5.04zm-18.98-12.59q-.68-1.05-1.58-1.6-.9-.59-2.1-.6-1.02 0-2.1.44-1.1.43-2.4 1.28l-3.82 2.48 5.98 9.2 3.28-2.12q1.54-1 2.51-2.01.97-1.03 1.29-2.28.29-1.17.06-2.28-.23-1.13-1.12-2.5z"/><path d="m470.85 493.14-14.87 12.09-18.35-22.56 14.86-12.1 2.17 2.67-11.86 9.65 5.03 6.18 11.86-9.65 2.17 2.67-11.86 9.65 6.81 8.38 11.87-9.65z"/><path d="m489.15 475.32-13.09 12.93-20.44-20.69 2.75-2.71 18.03 18.24 10.34-10.21z"/><path d="m498.98 463.81-7.5 8.7-2.25-1.94 2.49-2.88-17.53-15.11-2.5 2.88-2.24-1.94 7.5-8.7 2.25 1.94-2.49 2.89 17.53 15.1 2.49-2.88z"/><path d="m515 442.4-11.22 15.53-23.58-17.02 11.22-15.53 2.78 2-8.95 12.4 6.46 4.67 8.95-12.4 2.8 2.01-8.96 12.4 8.76 6.33 8.95-12.4z"/><path d="m505.97 407.37-7.4 12.7 7.08 4.14 6.36-10.92 2.97 1.73-6.36 10.92 12.1 7.05-1.95 3.34-25.12-14.64 9.35-16.05z"/></g><path d="m213.24 250.42h-10.9v28.15h-9v-28.15h-10.9v-6.75h30.8z"/><path d="m249.94 278.57h-9v-15.37h-13.29v15.37h-9v-34.9h9v12.78h13.3v-12.78h9z"/><path d="m284.09 278.57h-25.24v-34.9h25.24v6.75h-16.29v6.03h15.12v6.75h-15.12v8.62h16.29z"/><path d="m341.98 261.14q0 8.34-4.78 13.26-4.78 4.9-13.22 4.9-8.41 0-13.2-4.9-4.78-4.92-4.78-13.26 0-8.42 4.79-13.3 4.78-4.9 13.19-4.9 8.4 0 13.2 4.9 4.8 4.88 4.8 13.3zm-11.93 8.83q1.31-1.6 1.95-3.75.63-2.18.63-5.1 0-3.15-.73-5.35-.72-2.2-1.9-3.56-1.2-1.41-2.76-2.04-1.55-.64-3.24-.64-1.7 0-3.23.61-1.5.61-2.77 2.02-1.17 1.31-1.92 3.63-.72 2.3-.72 5.35 0 3.11.7 5.32.73 2.18 1.9 3.56t2.74 2.04q1.57.65 3.3.65 1.74 0 3.3-.65 1.58-.68 2.75-2.09z"/><path d="m364.62 279.25q-3.89 0-7.2-1.15-3.28-1.14-5.64-3.42-2.37-2.27-3.68-5.67-1.3-3.4-1.3-7.85 0-4.15 1.25-7.52 1.24-3.38 3.61-5.8 2.27-2.31 5.63-3.58 3.37-1.27 7.35-1.27 2.2 0 3.97.26 1.78.24 3.28.64 1.57.44 2.83 1 1.3.54 2.25 1.01v8.46h-1.03q-.65-.56-1.66-1.33-.99-.78-2.25-1.53-1.3-.75-2.8-1.26-1.5-.52-3.2-.52-1.9 0-3.61.61-1.71.59-3.17 1.97-1.38 1.34-2.25 3.54-.84 2.2-.84 5.34 0 3.28.91 5.49.94 2.2 2.35 3.47 1.43 1.28 3.19 1.85 1.75.54 3.46.54 1.64 0 3.24-.5 1.62-.49 2.98-1.33 1.14-.68 2.13-1.46.98-.77 1.62-1.33h.93v8.34q-1.31.59-2.5 1.1-1.2.52-2.51.9-1.71.49-3.21.74-1.5.26-4.13.26z"/><path d="m416.56 261.16q0 4.87-2.23 8.74-2.22 3.84-5.62 5.9-2.56 1.55-5.6 2.16-3.05.61-7.22.61h-12.3v-34.9h12.65q4.26 0 7.36.73 3.1.7 5.2 2.02 3.61 2.2 5.67 5.95 2.09 3.73 2.09 8.79zm-9.3-.07q0-3.45-1.27-5.88-1.24-2.47-3.96-3.85-1.39-.68-2.84-.91-1.43-.26-4.33-.26h-2.28v21.84h2.28q3.2 0 4.7-.28 1.5-.3 2.94-1.08 2.46-1.4 3.6-3.75 1.15-2.36 1.15-5.83z"/><path d="m236.35 356.05q-3.9 0-7.2-1.15-3.28-1.14-5.65-3.42-2.36-2.27-3.68-5.67-1.28-3.4-1.28-7.85 0-4.15 1.24-7.52 1.24-3.38 3.6-5.8 2.28-2.31 5.63-3.58 3.38-1.27 7.36-1.27 2.2 0 3.96.26 1.78.24 3.28.64 1.57.44 2.84 1 1.29.54 2.25 1.01v8.46h-1.03q-.66-.56-1.67-1.33-.98-.78-2.25-1.53-1.29-.75-2.79-1.26-1.5-.52-3.2-.52-1.9 0-3.62.61-1.7.59-3.16 1.97-1.38 1.34-2.25 3.54-.84 2.2-.84 5.34 0 3.28.91 5.49.94 2.2 2.34 3.47 1.43 1.28 3.2 1.85 1.75.54 3.46.54 1.64 0 3.24-.5 1.61-.49 2.97-1.33 1.15-.68 2.13-1.46.99-.77 1.62-1.33h.94v8.34q-1.31.59-2.5 1.1-1.2.52-2.52.9-1.7.49-3.2.74-1.5.26-4.13.26z"/><path d="m286.01 320.47-12.87 21.4v13.5h-9v-13.07l-13.07-21.82h10.22l7.54 13.5 7.3-13.5z"/><path d="m306.45 356.05q-3.9 0-7.2-1.15-3.28-1.14-5.64-3.42-2.37-2.27-3.68-5.67-1.3-3.4-1.3-7.85 0-4.15 1.25-7.52 1.24-3.38 3.6-5.8 2.28-2.31 5.63-3.58 3.38-1.27 7.36-1.27 2.2 0 3.96.26 1.78.24 3.28.64 1.58.44 2.84 1 1.29.54 2.25 1.01v8.46h-1.03q-.66-.56-1.66-1.33-.99-.78-2.25-1.53-1.3-.75-2.8-1.26-1.5-.52-3.2-.52-1.9 0-3.61.61-1.71.59-3.17 1.97-1.38 1.34-2.25 3.54-.84 2.2-.84 5.34 0 3.28.91 5.49.94 2.2 2.35 3.47 1.43 1.28 3.18 1.85 1.76.54 3.47.54 1.64 0 3.24-.5 1.61-.49 2.97-1.33 1.15-.68 2.14-1.46.98-.77 1.61-1.33h.94v8.34q-1.31.59-2.5 1.1-1.2.52-2.51.9-1.72.49-3.22.74-1.5.26-4.12.26z"/><path d="m350.58 355.37h-25.17v-34.9h9v28.15h16.17z"/><path d="m381.24 355.37h-25.24v-34.9h25.24v6.75h-16.3v6.03h15.13v6.75h-15.12v8.62h16.29z"/></g><g><g transform="matrix(-.93457754 -.35575951 .35575951 -.93457754 473.007209 686.003751)"><path d="m552.53 326.8q-2.07 1.64-4.95 2.38-2.9.77-6.48.52-3.59-.24-6.36-1.41-2.77-1.15-4.54-3.01-1.84-1.93-2.67-4.45-.83-2.5-.61-5.64.2-3.06 1.39-5.5 1.18-2.43 3.23-4.05 2.05-1.62 4.92-2.39 2.87-.74 6.47-.5 3.55.24 6.3 1.37 2.76 1.13 4.64 3.06 1.8 1.84 2.63 4.44.84 2.63.64 5.63-.21 3.12-1.41 5.52-1.19 2.42-3.2 4.03zm-11.16-1.11q5.65.38 8.89-1.94 3.25-2.33 3.55-6.71.3-4.42-2.61-7.17-2.89-2.72-8.54-3.1-5.7-.4-8.92 1.97-3.2 2.37-3.5 6.7-.29 4.32 2.56 7.08 2.86 2.78 8.57 3.17z"/><path d="m530.05 358.05q-2.13-.42-3.6-1.55-1.47-1.13-2.25-2.7-.94-1.86-1.1-3.9-.15-2.03.44-5l2.02-10.1 28.52 5.67-1.68 8.45q-.63 3.12-1.16 4.63-.54 1.5-1.55 2.78-1.14 1.4-2.58 1.85-1.43.46-3.23.1-2.03-.4-3.26-1.73-1.21-1.31-1.73-3.21l-.15-.03q-1.17 2.77-3.46 4.05-2.27 1.28-5.23.69zm14.12-3.82q1.03.2 1.81 0t1.37-.88q.7-.8 1.07-2.05.39-1.26.77-3.16l.9-4.52-8.24-1.64-.98 4.9q-.35 1.79-.39 2.87-.02 1.1.38 2.11.4 1.02 1.22 1.56.84.56 2.09.81zm-13.5-.16q1.73.35 2.85.03 1.12-.31 2.1-1.53.66-.83 1.06-2.12.41-1.27.78-3.15l1.2-5.96-10.62-2.11-1 5.02q-.5 2.49-.56 4.13-.05 1.64.43 2.8.54 1.21 1.4 1.9.85.7 2.37 1z"/><path d="m521.03 384.26q-1.62-.53-2.94-1.8-1.34-1.27-1.99-2.98-.7-1.87-.71-4.08-.03-2.19.89-4.97.98-2.99 2.32-5.2 1.34-2.19 3.24-4.3l4.6 1.51-.08.26q-2.43 1.53-4.28 3.96-1.85 2.44-2.64 4.85-1.12 3.41-.46 5.73.65 2.33 2.78 3.03 1.84.6 3.01-.02 1.17-.6 2.25-2.28.83-1.27 1.6-2.83.78-1.53 1.75-3.23 1.98-3.41 4.44-4.58 2.47-1.14 5.5-.15 3.47 1.14 4.71 4.8 1.27 3.66-.21 8.17-.96 2.91-2.32 5.16-1.35 2.25-2.78 3.86l-4.34-1.43.08-.26q1.85-1.14 3.57-3.43 1.74-2.27 2.62-4.96.97-2.95.33-5.15-.63-2.19-2.56-2.82-1.73-.57-3 0-1.28.57-2.54 2.64-.65 1.1-1.74 3.17-1.09 2.07-1.98 3.46-1.83 2.82-4 3.83-2.15 1.02-5.12.04z"/><path d="m502.67 404.8 8.04-17.39 26.4 12.21-8.04 17.4-3.12-1.45 6.42-13.88-7.24-3.35-6.42 13.88-3.12-1.44 6.42-13.88-9.8-4.53-6.42 13.88z"/><path d="m495.8 432.57q-1.45-.89-2.45-2.43-1.01-1.54-1.25-3.35-.25-1.99.24-4.14.48-2.13 2-4.63 1.64-2.69 3.46-4.53 1.8-1.83 4.14-3.44l4.13 2.52-.14.24q-2.72.92-5.07 2.87-2.36 1.95-3.69 4.11-1.87 3.07-1.76 5.47.1 2.42 2.02 3.6 1.65 1 2.93.66 1.27-.32 2.71-1.7 1.1-1.05 2.21-2.38 1.1-1.32 2.44-2.75 2.71-2.87 5.38-3.44 2.66-.55 5.38 1.11 3.12 1.9 3.49 5.75.39 3.86-2.09 7.9-1.6 2.63-3.43 4.5-1.83 1.88-3.6 3.12l-3.9-2.39.15-.23q2.06-.68 4.26-2.52 2.2-1.81 3.68-4.23 1.62-2.65 1.51-4.94-.12-2.27-1.85-3.33-1.55-.95-2.92-.69-1.38.26-3.08 2-.88.92-2.42 2.68-1.53 1.76-2.72 2.92-2.42 2.31-4.76 2.8-2.34.5-5-1.13z"/><path d="m478.5 455.03q-1.34-1.05-2.14-2.7-.82-1.65-.85-3.48 0-2 .73-4.08.73-2.06 2.55-4.36 1.95-2.47 3.97-4.08 2-1.6 4.52-2.93l3.8 3-.17.22q-2.8.6-5.38 2.24-2.57 1.66-4.14 3.65-2.23 2.82-2.4 5.22-.2 2.41 1.57 3.8 1.52 1.2 2.83 1.02 1.3-.17 2.9-1.37 1.21-.9 2.48-2.1 1.25-1.18 2.74-2.44 3.04-2.53 5.75-2.78 2.71-.22 5.21 1.75 2.87 2.27 2.78 6.13-.07 3.87-3 7.6-1.9 2.4-3.95 4.05-2.05 1.65-3.94 2.66l-3.6-2.83.18-.21q2.13-.43 4.53-2 2.4-1.53 4.16-3.76 1.93-2.43 2.09-4.72.15-2.27-1.45-3.53-1.42-1.12-2.82-1.03-1.39.1-3.28 1.61-1 .81-2.73 2.38-1.73 1.57-3.05 2.57-2.68 2.02-5.06 2.23-2.38.2-4.83-1.73z"/><path d="m460.55 461.77 7.95-8.3 2.14 2.06-2.63 2.75 16.7 16.02 2.64-2.75 2.15 2.05-7.95 8.3-2.14-2.06 2.63-2.75-16.7-16.02-2.64 2.75z"/><path d="m456.02 500.17q-2.62-.34-5.16-1.9-2.56-1.55-4.88-4.3-2.32-2.74-3.42-5.54-1.1-2.79-.99-5.35.1-2.67 1.34-5.02 1.22-2.34 3.62-4.37 2.35-1.98 4.93-2.83 2.56-.83 5.15-.5 2.6.35 5.14 1.88 2.53 1.55 4.86 4.3 2.3 2.72 3.4 5.47 1.1 2.77 1.03 5.47-.08 2.57-1.36 4.98-1.3 2.43-3.6 4.37-2.38 2.02-4.95 2.83-2.56.84-5.11.51zm-6.97-8.79q3.66 4.33 7.58 5.03 3.93.72 7.28-2.12 3.39-2.86 3.34-6.85-.06-3.97-3.71-8.3-3.7-4.37-7.63-5.03-3.92-.65-7.24 2.15-3.3 2.8-3.3 6.76-.01 4 3.68 8.36z"/><path d="m412.83 498.33 4.04-2.57 25.6 14.52-13.98-21.93 3.05-1.95 15.63 24.52-5.05 3.23-23.38-13.26 12.77 20.02-3.04 1.94z"/></g><g fill="#fff" transform="matrix(.37169192 -.92835614 .92835614 .37169192 -89.995491 466.14723)"><path d="m541.15 328.9q-3.95-.26-7.05-2.21-3.1-1.93-4.69-4.91-1.1-2.07-1.47-4.56-.39-2.48-.12-6.47l.49-7.33 29.01 1.93-.48 7.25q-.28 4.25-1.07 6.7-.77 2.48-1.96 4.14-2.05 2.84-5.24 4.3-3.19 1.44-7.42 1.16zm.33-4.03q3.41.23 5.83-.8 2.42-1.04 3.92-3.3 1.09-1.66 1.59-3.56.51-1.9.7-4.6l.23-3.62-22.39-1.49-.24 3.62q-.18 2.8.09 4.88.27 2.12 1.26 3.93 1.24 2.25 3.43 3.47 2.19 1.25 5.58 1.47z"/><path d="m523.76 344.2 1.94-11.3 2.93.5-.65 3.75 22.81 3.93.65-3.76 2.92.5-1.94 11.32-2.93-.5.65-3.75-22.81-3.93-.65 3.75z"/><path d="m524.93 373.26q-1.64-.45-3.03-1.66-1.4-1.2-2.13-2.87-.79-1.84-.91-4.04-.13-2.18.64-5 .83-3.04 2.06-5.32 1.23-2.25 3.03-4.45l4.67 1.28-.07.26q-2.36 1.65-4.08 4.17-1.73 2.52-2.4 4.97-.95 3.47-.18 5.75.77 2.3 2.94 2.89 1.86.5 3-.17 1.13-.66 2.13-2.4.77-1.3 1.47-2.9.7-1.56 1.58-3.3 1.8-3.52 4.2-4.8 2.42-1.27 5.49-.43 3.52.97 4.95 4.56 1.44 3.6.19 8.17-.82 2.96-2.06 5.27-1.24 2.32-2.59 4l-4.4-1.22.06-.26q1.8-1.23 3.4-3.6 1.62-2.36 2.37-5.09.82-3 .08-5.16-.75-2.15-2.7-2.69-1.76-.48-3 .15-1.25.63-2.4 2.77-.6 1.13-1.58 3.25-1 2.12-1.81 3.55-1.69 2.9-3.8 4.03-2.1 1.12-5.12.3z"/><path d="m530.83 405.73 3.88-9.64-23.8-9.57 1.45-3.59 23.79 9.57 3.87-9.64 3.2 1.28-9.2 22.87z"/><path d="m493.75 420.8 2.4-4.41 14.8-3.03 2.6-4.79-10.16-5.52 1.85-3.4 25.56 13.89-3.9 7.15q-1.25 2.32-2.4 3.7-1.13 1.38-2.57 2.2-1.63.92-3.4.96-1.74.07-3.78-1.04-2.77-1.5-3.88-3.9-1.1-2.4-.72-5.35zm22.68 2.03q1.1.6 2.16.66 1.06.09 2.13-.49.9-.47 1.64-1.38.75-.9 1.5-2.27l2.17-4-9.64-5.24-1.87 3.43q-.87 1.62-1.25 2.97-.36 1.36-.05 2.62.3 1.16 1.03 2.03.74.89 2.18 1.67z"/><path d="m480.46 439.5 11.04-15.66 23.77 16.75-11.03 15.67-2.81-1.98 8.8-12.5-6.5-4.6-8.82 12.5-2.8-1.97 8.8-12.5-8.83-6.23-8.8 12.5z"/><path d="m468.74 465.6q-1.27-1.14-1.98-2.84-.72-1.69-.63-3.52.11-2 .98-4.02.85-2.02 2.8-4.2 2.1-2.35 4.2-3.84 2.1-1.48 4.7-2.65l3.61 3.23-.18.2q-2.84.43-5.5 1.92-2.67 1.5-4.36 3.39-2.4 2.68-2.72 5.06-.33 2.4 1.35 3.9 1.44 1.29 2.76 1.18 1.31-.09 2.98-1.2 1.26-.82 2.6-1.94 1.32-1.1 2.88-2.27 3.19-2.33 5.9-2.42 2.73-.06 5.1 2.06 2.73 2.43 2.41 6.28-.3 3.86-3.46 7.4-2.04 2.3-4.18 3.81-2.14 1.52-4.1 2.42l-3.4-3.04.17-.2q2.16-.3 4.65-1.72 2.5-1.39 4.38-3.5 2.07-2.32 2.36-4.6.3-2.25-1.22-3.6-1.36-1.21-2.76-1.2-1.4.01-3.37 1.41-1.04.75-2.87 2.21-1.82 1.46-3.2 2.38-2.8 1.85-5.18 1.92-2.4.06-4.72-2.02z"/><path d="m447.71 484.6q-1.12-1.26-1.62-3.04-.52-1.76-.2-3.57.33-1.97 1.44-3.88 1.08-1.9 3.28-3.84 2.35-2.08 4.63-3.3 2.26-1.22 4.97-2.08l3.2 3.63-.2.18q-2.87.09-5.7 1.25-2.82 1.17-4.72 2.85-2.7 2.38-3.3 4.71-.61 2.34.88 4.03 1.28 1.44 2.6 1.5 1.31.07 3.1-.83 1.35-.68 2.8-1.63 1.45-.93 3.14-1.9 3.45-1.95 6.16-1.71 2.7.26 4.81 2.65 2.42 2.73 1.65 6.52-.76 3.8-4.32 6.94-2.3 2.03-4.6 3.29-2.31 1.25-4.36 1.91l-3.02-3.42.2-.18q2.18-.05 4.82-1.16 2.64-1.08 4.76-2.96 2.33-2.05 2.9-4.27.55-2.2-.8-3.73-1.2-1.36-2.59-1.52-1.38-.15-3.52 1-1.12.62-3.1 1.86-1.99 1.23-3.46 1.98-3 1.5-5.38 1.29-2.38-.22-4.45-2.56z"/></g></g></g></svg>